<svg width="100" height="100" viewBox="0 0 100 100" fill="none" xmlns="http://www.w3.org/2000/svg">
  <path d="M95.75 78.75L77.5 95.75C76.5 96.75 75.25 97 74 97H4C2.5 97 1.5 96.25 1 95C0.5 93.75 0.75 92.25 1.75 91.25L20 74.25C21 73.25 22.25 73 23.5 73H93.5C95 73 96 73.75 96.5 75C97 76.25 96.75 77.75 95.75 78.75Z" fill="#9945FF"/>
  <path d="M95.75 48.75L77.5 65.75C76.5 66.75 75.25 67 74 67H4C2.5 67 1.5 66.25 1 65C0.5 63.75 0.75 62.25 1.75 61.25L20 44.25C21 43.25 22.25 43 23.5 43H93.5C95 43 96 43.75 96.5 45C97 46.25 96.75 47.75 95.75 48.75Z" fill="#00C2FF"/>
  <path d="M95.75 18.75L77.5 35.75C76.5 36.75 75.25 37 74 37H4C2.5 37 1.5 36.25 1 35C0.5 33.75 0.75 32.25 1.75 31.25L20 14.25C21 13.25 22.25 13 23.5 13H93.5C95 13 96 13.75 96.5 15C97 16.25 96.75 17.75 95.75 18.75Z" fill="#00FFA3"/>
</svg> 