<svg width="64" height="64" viewBox="0 0 64 64" fill="none" xmlns="http://www.w3.org/2000/svg">
  <circle cx="32" cy="32" r="32" fill="#000000" />
  <path d="M20.6831 40.0766C20.9491 39.8106 21.3061 39.6606 21.6831 39.6606H50.1831C50.8161 39.6606 51.1331 40.4366 50.6831 40.8866L43.3171 48.2526C43.0511 48.5186 42.6941 48.6686 42.3171 48.6686H13.8171C13.1841 48.6686 12.8671 47.8926 13.3171 47.4426L20.6831 40.0766Z" fill="url(#paint0_linear)" />
  <path d="M20.6831 15.7474C20.9591 15.4814 21.3161 15.3314 21.6831 15.3314H50.1831C50.8161 15.3314 51.1331 16.1074 50.6831 16.5574L43.3171 23.9234C43.0511 24.1894 42.6941 24.3394 42.3171 24.3394H13.8171C13.1841 24.3394 12.8671 23.5634 13.3171 23.1134L20.6831 15.7474Z" fill="url(#paint1_linear)" />
  <path d="M43.3171 27.8686C43.0511 27.6026 42.6941 27.4526 42.3171 27.4526H13.8171C13.1841 27.4526 12.8671 28.2286 13.3171 28.6786L20.6831 36.0446C20.9491 36.3106 21.3061 36.4606 21.6831 36.4606H50.1831C50.8161 36.4606 51.1331 35.6846 50.6831 35.2346L43.3171 27.8686Z" fill="url(#paint2_linear)" />
  <defs>
    <linearGradient id="paint0_linear" x1="13" y1="44.1646" x2="51" y2="44.1646" gradientUnits="userSpaceOnUse">
      <stop stop-color="#9945FF" />
      <stop offset="1" stop-color="#14F195" />
    </linearGradient>
    <linearGradient id="paint1_linear" x1="13" y1="19.8354" x2="51" y2="19.8354" gradientUnits="userSpaceOnUse">
      <stop stop-color="#9945FF" />
      <stop offset="1" stop-color="#14F195" />
    </linearGradient>
    <linearGradient id="paint2_linear" x1="13" y1="31.9566" x2="51" y2="31.9566" gradientUnits="userSpaceOnUse">
      <stop stop-color="#9945FF" />
      <stop offset="1" stop-color="#14F195" />
    </linearGradient>
  </defs>
</svg> 