<?xml version="1.0" encoding="UTF-8"?>
<svg width="512" height="512" viewBox="0 0 512 512" fill="none" xmlns="http://www.w3.org/2000/svg">
  <circle cx="256" cy="256" r="256" fill="#000632"/>
  <path d="M256 112C176.5 112 112 176.5 112 256C112 335.5 176.5 400 256 400C335.5 400 400 335.5 400 256C400 176.5 335.5 112 256 112ZM256 368C194.2 368 144 317.8 144 256C144 194.2 194.2 144 256 144C317.8 144 368 194.2 368 256C368 317.8 317.8 368 256 368Z" fill="#8F5AE8"/>
  <path d="M256 180C214.1 180 180 214.1 180 256C180 297.9 214.1 332 256 332C297.9 332 332 297.9 332 256C332 214.1 297.9 180 256 180ZM256 300C231.7 300 212 280.3 212 256C212 231.7 231.7 212 256 212C280.3 212 300 231.7 300 256C300 280.3 280.3 300 256 300Z" fill="#E852D4"/>
  <path d="M256 232C245.0 232 236 241.0 236 252C236 263.0 245.0 272 256 272C267.0 272 276 263.0 276 252C276 241.0 267.0 232 256 232Z" fill="#00FFAA"/>
</svg> 