<?xml version="1.0" encoding="UTF-8"?>
<svg width="40" height="40" viewBox="0 0 40 40" fill="none" xmlns="http://www.w3.org/2000/svg">
  <rect width="40" height="40" rx="8" fill="#2D3748"/>
  <path d="M20 10C14.477 10 10 14.477 10 20C10 25.523 14.477 30 20 30C25.523 30 30 25.523 30 20C30 14.477 25.523 10 20 10ZM20 28C15.582 28 12 24.418 12 20C12 15.582 15.582 12 20 12C24.418 12 28 15.582 28 20C28 24.418 24.418 28 20 28Z" fill="#A0AEC0"/>
  <path d="M20 14C16.686 14 14 16.686 14 20C14 23.314 16.686 26 20 26C23.314 26 26 23.314 26 20C26 16.686 23.314 14 20 14ZM20 24C17.791 24 16 22.209 16 20C16 17.791 17.791 16 20 16C22.209 16 24 17.791 24 20C24 22.209 22.209 24 20 24Z" fill="#718096"/>
  <circle cx="20" cy="20" r="2" fill="#4A5568"/>
</svg> 