<?xml version="1.0" encoding="UTF-8"?>
<svg width="40" height="40" viewBox="0 0 40 40" fill="none" xmlns="http://www.w3.org/2000/svg">
  <rect width="40" height="40" rx="8" fill="#2D3748"/>
  <path d="M20 8L28 12V20L20 24L12 20V12L20 8Z" fill="#00FFA3"/>
  <path d="M20 10L26 13V19L20 22L14 19V13L20 10Z" fill="#1A1A1A"/>
  <path d="M20 12L24 14V18L20 20L16 18V14L20 12Z" fill="#00FFA3"/>
  <path d="M20 24V32L28 28V20L20 24Z" fill="#00FFA3"/>
  <path d="M20 26V30L26 27V21L20 26Z" fill="#1A1A1A"/>
  <path d="M20 28V30L24 28V24L20 28Z" fill="#00FFA3"/>
</svg> 