<?xml version="1.0" encoding="UTF-8"?>
<svg width="40" height="40" viewBox="0 0 40 40" fill="none" xmlns="http://www.w3.org/2000/svg">
  <rect width="40" height="40" rx="8" fill="#2D3748"/>
  <circle cx="20" cy="20" r="12" fill="#00FFA3"/>
  <circle cx="20" cy="20" r="10" fill="#1A1A1A"/>
  <path d="M20 12C15.582 12 12 15.582 12 20C12 24.418 15.582 28 20 28C24.418 28 28 24.418 28 20C28 15.582 24.418 12 20 12ZM20 26C16.686 26 14 23.314 14 20C14 16.686 16.686 14 20 14C23.314 14 26 16.686 26 20C26 23.314 23.314 26 20 26Z" fill="#00FFA3"/>
  <circle cx="20" cy="20" r="4" fill="#1A1A1A"/>
  <circle cx="20" cy="20" r="2" fill="#00FFA3"/>
</svg> 