<?xml version="1.0" encoding="UTF-8"?>
<svg width="40" height="40" viewBox="0 0 40 40" fill="none" xmlns="http://www.w3.org/2000/svg">
  <rect width="40" height="40" rx="8" fill="#2D3748"/>
  <path d="M8.5 26.5C8.7 26.3 9 26.3 9.2 26.5L31.5 4.2C31.7 4 32 4 32.2 4.2C32.4 4.4 32.4 4.7 32.2 4.9L9.9 27.2C9.7 27.4 9.4 27.4 9.2 27.2C9 27 9 26.7 9.2 26.5L8.5 26.5Z" fill="#00FFA3"/>
  <path d="M8.5 15.5C8.7 15.3 9 15.3 9.2 15.5L31.5 33.8C31.7 34 32 34 32.2 33.8C32.4 33.6 32.4 33.3 32.2 33.1L9.9 14.8C9.7 14.6 9.4 14.6 9.2 14.8C9 15 9 15.3 9.2 15.5L8.5 15.5Z" fill="#00FFA3"/>
  <path d="M8.5 21C8.7 20.8 9 20.8 9.2 21L31.5 38.3C31.7 38.5 32 38.5 32.2 38.3C32.4 38.1 32.4 37.8 32.2 37.6L9.9 20.3C9.7 20.1 9.4 20.1 9.2 20.3C9 20.5 9 20.8 9.2 21L8.5 21Z" fill="#00FFA3"/>
</svg> 