<?xml version="1.0" encoding="UTF-8"?>
<svg width="40" height="40" viewBox="0 0 40 40" fill="none" xmlns="http://www.w3.org/2000/svg">
  <rect width="40" height="40" rx="8" fill="#2D3748"/>
  <path d="M20 8C13.373 8 8 13.373 8 20C8 26.627 13.373 32 20 32C26.627 32 32 26.627 32 20C32 13.373 26.627 8 20 8ZM20 30C14.477 30 10 25.523 10 20C10 14.477 14.477 10 20 10C25.523 10 30 14.477 30 20C30 25.523 25.523 30 20 30Z" fill="#00FFA3"/>
  <path d="M20 12C15.582 12 12 15.582 12 20C12 24.418 15.582 28 20 28C24.418 28 28 24.418 28 20C28 15.582 24.418 12 20 12ZM20 26C16.686 26 14 23.314 14 20C14 16.686 16.686 14 20 14C23.314 14 26 16.686 26 20C26 23.314 23.314 26 20 26Z" fill="#1A1A1A"/>
  <path d="M20 16C17.791 16 16 17.791 16 20C16 22.209 17.791 24 20 24C22.209 24 24 22.209 24 20C24 17.791 22.209 16 20 16ZM20 22C18.895 22 18 21.105 18 20C18 18.895 18.895 18 20 18C21.105 18 22 18.895 22 20C22 21.105 21.105 22 20 22Z" fill="#00FFA3"/>
</svg> 